#!OML:ASF F:\VICON\USERDATA\INSTALL\rory3\rory3.ASF
:FULLY-SPECIFIED
:DEGREES
60
root -7.017379237769948 18.09142297382778 1.0964690056704862 -176.9158730306948 51.455890293483925 -187.46437420877714
lfemur -20.452791146796116 -1.2549111165105318 -24.02460163850275
ltibia 11.146415452454391
lfoot 15.551347075064319 -36.61758921635652
ltoes 27.36045154645081
rfemur -8.669217306455852 -2.1979088178506188 1.9739584442192921
rtibia 38.075890835956585
rfoot -2.47360189253277 2.6212441939216724
rtoes -5.12460608550084
lowerback -5.221247587372922 -5.666448808896558 1.4989667875388237
upperback 3.6964397983490116 -7.674654596114328 10.245591492644495
thorax 8.465653648438284 -3.8906820975844276 10.570901654968814
lowerneck -8.408965866035047 -7.669231371735272 -1.4167180813883633
upperneck 24.517058183658108 -8.818322637156562 -11.552548297116456
head 8.830397825696826 -5.048457306224816 -4.309219810902177
lclavicle -7.023226807648538e-15 -5.150564943492247e-15
lhumerus 49.09338578478572 -31.452581504381836 76.1457926268588
lradius 20.421066062846055
lwrist 9.868287264234151
lhand 4.097501068720538 40.24023727816481
lfingers 7.125020000000003
lthumb -159.25165918400836 373.1112994415106
rclavicle -7.010643540471775e-15 -5.151012120241228e-15
rhumerus 12.960599490369013 9.019384464259563 -87.23118893686473
rradius 32.66173330363308
rwrist -46.33370740629404
rhand -28.813067459669163 -2.482017839326801
rfingers 7.125020000000003
rthumb -3.091689638680414 -34.646500691276906
61
root -6.965083127009543 18.05090439839761 0.9409057417662376 -179.56184497678058 46.803897010671896 -188.50459460125478
lfemur -16.221541715180972 -2.9380600583828356 -25.331740086236575
ltibia 8.812148276468111
lfoot 18.060466906372138 -37.74552015647554
ltoes 32.53965440500842
rfemur -4.82250079181746 -2.2558998288894667 1.1691244986126144
rtibia 38.09469223727968
rfoot -1.2064029015096445 1.1934089105712982
rtoes -5.446123311551727
lowerback -6.022432587623839 -3.65731722545235 2.0876071646737278
upperback 2.730561989026193 -4.817293363274024 10.913692770667613
thorax 7.284879068920461 -2.368720984732712 11.409632786170137
lowerneck -6.621038785824823 -10.826501426220185 -2.456012844343986
upperneck 24.061624680503797 -13.770009061710613 -9.502437811507392
head 8.111896677992092 -7.229225987304911 -3.709513906075099
lclavicle -7.0273652044354285e-15 -5.2126381934815506e-15
lhumerus 45.838016058517525 -30.171449714913987 77.34364424712834
lradius 20.200349047936825
lwrist 18.270048615732325
lhand 2.9339948383210057 43.18525322904979
lfingers 7.125020000000003
lthumb -155.00142844715612 476.3323032316697
rclavicle -7.010282674662233e-15 -5.15156629585799e-15
rhumerus 17.04067307990157 10.922576011939533 -88.21068900865748
rradius 25.370186576190143
rwrist -42.313468372254704
rhand -23.363389970869864 -5.160639766746296
rfingers 7.125020000000003
rthumb 2.9539012945303647 -36.86738346451688
62
root -6.93927769000426 18.009058665221325 0.7811653882842341 -181.29782790764153 42.65047027067388 -188.11884067349465
lfemur -12.942696327387107 -5.1663305254982514 -25.872586492436547
ltibia 7.875602638502301
lfoot 18.58403132206389 -38.50692772855014
ltoes 36.39078734281475
rfemur -1.1305162714291823 -2.3614560456443145 1.051474722647157
rtibia 37.61318205875249
rfoot 0.08727338928518158 -0.19605265787784099
rtoes -5.324896340584441
lowerback -6.3655014746900465 -1.9226622724240388 2.1587635158288068
upperback 1.7069387761715662 -2.1609353915888794 11.9093452309056
thorax 5.818670948797817 -0.8565469486167558 12.97903570902857
lowerneck -4.462429955754193 -13.528601809605128 -3.900855546410603
upperneck 22.910033060961 -18.169011097618096 -7.28816696700195
head 7.442747573436631 -9.24035805294448 -3.0018839920437297
lclavicle -7.02934309134665e-15 -5.2745603320081474e-15
lhumerus 43.887926788741844 -26.20720123945015 78.94602275168111
lradius 19.794357616189405
lwrist 26.741962612688717
lhand -0.7306003746187457 41.96103172838791
lfingers 7.125020000000003
lthumb -151.99818200295417 383.0924420717703
rclavicle -7.009481571242801e-15 -5.151645084475608e-15
rhumerus 21.98691212536668 15.211468995321189 -87.63245170331436
rradius 20.806567515152686
rwrist -37.05958645042063
rhand -19.065608380895622 -5.804892175478006
rfingers 7.125020000000003
rthumb 8.117124301514806 -36.95809050878615
63
root -6.91004859120747 17.96731807722344 0.5834273425464713 -181.91995050943478 38.92872680725523 -187.0486603438273
lfemur -11.069385474958297 -7.127997483643029 -25.782445017410275
ltibia 9.77329165211767
lfoot 17.061484410726198 -39.55511264311275
ltoes 38.00082997061357
rfemur 2.2421120680801767 -2.478987497805735 1.5235142932672332
rtibia 36.57896312227395
rfoot 1.420414091001188 -1.575737365814323
rtoes -5.5620493853495
lowerback -6.672776638580033 -0.43340564225321554 3.1336083321950503
upperback 0.8907460783618895 0.16866250861170062 12.498445343470244
thorax 4.759450692121008 0.5669117605192902 13.421926071481632
lowerneck -2.9331720155721976 -15.653324945224186 -4.673373804678223
upperneck 21.40020609873527 -21.73688422430638 -4.990317711198944
head 6.838613265140862 -10.730337852097524 -2.4055293618106495
lclavicle -7.024563947502196e-15 -5.29289185609123e-15
lhumerus 43.622730063575574 -21.17229549730437 79.06902970134837
lradius 20.536929904456453
lwrist 39.18469184486169
lhand -3.8414319424484678 39.681316664943665
lfingers 7.125020000000003
lthumb -154.23110214340048 351.6430229637831
rclavicle -7.0120063334410665e-15 -5.153336280239068e-15
rhumerus 29.044579671860774 25.848592543980462 -85.39474678488612
rradius 19.45157321370136
rwrist -33.01398563235949
rhand -15.996535776460316 -4.984961750876316
rfingers 7.125020000000003
rthumb 11.812091636973747 -35.20478055794825
